<?xml version="1.0" encoding="UTF-8" standalone="no"?>
<!-- Created with Inkscape (http://www.inkscape.org/) -->
<svg
   xmlns:dc="http://purl.org/dc/elements/1.1/"
   xmlns:cc="http://web.resource.org/cc/"
   xmlns:rdf="http://www.w3.org/1999/02/22-rdf-syntax-ns#"
   xmlns:svg="http://www.w3.org/2000/svg"
   xmlns="http://www.w3.org/2000/svg"
   xmlns:xlink="http://www.w3.org/1999/xlink"
   xmlns:sodipodi="http://inkscape.sourceforge.net/DTD/sodipodi-0.dtd"
   xmlns:inkscape="http://www.inkscape.org/namespaces/inkscape"
   version="1.0"
   width="550pt"
   height="550pt"
   id="svg2"
   sodipodi:version="0.32"
   inkscape:version="0.43"
   sodipodi:docname="minesweeper genric.svg"
   sodipodi:docbase="/home/theresa">
  <metadata
     id="metadata9686">
    <rdf:RDF>
      <cc:Work
         rdf:about="">
        <dc:format>image/svg+xml</dc:format>
        <dc:type
           rdf:resource="http://purl.org/dc/dcmitype/StillImage" />
      </cc:Work>
    </rdf:RDF>
  </metadata>
  <sodipodi:namedview
     inkscape:window-height="543"
     inkscape:window-width="791"
     inkscape:pageshadow="2"
     inkscape:pageopacity="0.0"
     borderopacity="1.0"
     bordercolor="#666666"
     pagecolor="#ffffff"
     id="base"
     inkscape:zoom="0.35539095"
     inkscape:cx="372.04724"
     inkscape:cy="526.18109"
     inkscape:window-x="5"
     inkscape:window-y="46"
     inkscape:current-layer="svg2" />
  <defs
     id="defs4" />
  <g
     id="layer1">
    <rect
       width="608.60693"
       height="607.26294"
       ry="0.0076568937"
       x="39.948208"
       y="60.206112"
       style="opacity:1;color:#000000;fill:#ceccd4;fill-opacity:1;fill-rule:evenodd;stroke:#bfa6b7;stroke-width:2.62713218;stroke-linecap:round;stroke-linejoin:round;marker:none;marker-start:none;marker-mid:none;marker-end:none;stroke-miterlimit:4;stroke-dasharray:none;stroke-dashoffset:0;stroke-opacity:1;visibility:visible;display:inline;overflow:visible"
       id="rect4541" />
    <g
       id="g4407">
      <g
         transform="translate(22.39184,4.075251)"
         id="g4403">
        <path
           d="M 18.597869,58.400758 L 93.75601,58.400758 C 93.761011,58.400758 93.765038,58.404986 93.765038,58.41024 L 93.765038,133.34471 C 93.765038,133.34996 93.761011,133.35419 93.75601,133.35419 L 18.597869,133.35419 C 18.592859,133.35419 18.58883,133.34996 18.58883,133.34471 L 18.58883,58.41024 C 18.58883,58.404986 18.592859,58.400758 18.597869,58.400758 z "
           style="color:#000000;fill:#fdfcfd;fill-opacity:1;fill-rule:evenodd;stroke:#bfa6b7;stroke-width:0.47784585;stroke-linecap:round;stroke-linejoin:round;marker:none;marker-start:none;marker-mid:none;marker-end:none;stroke-miterlimit:4;stroke-dashoffset:0;stroke-opacity:1;visibility:visible;display:inline;overflow:visible"
           id="rect1313" />
        <path
           d="M 93.639024,58.484349 C 93.64403,58.484349 93.648061,58.488584 93.648061,58.493844 L 93.648061,133.54429 C 93.648061,133.54955 93.64403,133.55378 93.639024,133.55378 L 18.395912,133.55378 C 18.390906,133.55378 18.386876,133.54955 18.386876,133.54429 L 93.639024,58.484349 z "
           style="color:#000000;fill:#25252a;fill-opacity:1;fill-rule:evenodd;stroke:#bfa6b7;stroke-width:0.47848573;stroke-linecap:round;stroke-linejoin:round;marker:none;marker-start:none;marker-mid:none;marker-end:none;stroke-miterlimit:4;stroke-dashoffset:0;stroke-opacity:1;visibility:visible;display:inline;overflow:visible"
           id="path1341" />
      </g>
      <rect
         width="65.760902"
         height="65.760902"
         ry="0.0081540849"
         x="45.587189"
         y="67.172226"
         style="color:#000000;fill:#b3b1bc;fill-opacity:1;fill-rule:evenodd;stroke:#bfa6b7;stroke-width:0.4212136;stroke-linecap:round;stroke-linejoin:round;marker:none;marker-start:none;marker-mid:none;marker-end:none;stroke-miterlimit:4;stroke-dasharray:none;stroke-dashoffset:0;stroke-opacity:1;visibility:visible;display:inline;overflow:visible"
         id="rect1311" />
    </g>
    <use
       id="use4413"
       x="0"
       y="0"
       width="744.09448"
       height="1052.3622"
       xlink:href="#g4407" />
    <use
       transform="translate(0,75.63119)"
       id="use4415"
       x="0"
       y="0"
       width="744.09448"
       height="1052.3622"
       xlink:href="#g4407" />
    <use
       transform="translate(0,151.2624)"
       id="use4417"
       x="0"
       y="0"
       width="744.09448"
       height="1052.3622"
       xlink:href="#g4407" />
    <use
       transform="translate(0,226.8936)"
       id="use4419"
       x="0"
       y="0"
       width="744.09448"
       height="1052.3622"
       xlink:href="#g4407" />
    <use
       transform="translate(0,302.5248)"
       id="use4421"
       x="0"
       y="0"
       width="744.09448"
       height="1052.3622"
       xlink:href="#g4407" />
    <use
       transform="translate(0,378.1559)"
       id="use4423"
       x="0"
       y="0"
       width="744.09448"
       height="1052.3622"
       xlink:href="#g4407" />
    <use
       transform="translate(0,453.7871)"
       id="use4425"
       x="0"
       y="0"
       width="744.09448"
       height="1052.3622"
       xlink:href="#g4407" />
    <use
       transform="translate(0,529.4183)"
       id="use4427"
       x="0"
       y="0"
       width="744.09448"
       height="1052.3622"
       xlink:href="#g4407" />
    <use
       transform="translate(75.85633,0)"
       id="use4429"
       x="0"
       y="0"
       width="744.09448"
       height="1052.3622"
       xlink:href="#g4407" />
    <use
       transform="translate(75.85633,75.63119)"
       id="use4431"
       x="0"
       y="0"
       width="744.09448"
       height="1052.3622"
       xlink:href="#g4407" />
    <use
       transform="translate(75.85633,151.2624)"
       id="use4433"
       x="0"
       y="0"
       width="744.09448"
       height="1052.3622"
       xlink:href="#g4407" />
    <use
       transform="translate(75.85633,226.8936)"
       id="use4435"
       x="0"
       y="0"
       width="744.09448"
       height="1052.3622"
       xlink:href="#g4407" />
    <use
       transform="translate(75.85633,302.5248)"
       id="use4437"
       x="0"
       y="0"
       width="744.09448"
       height="1052.3622"
       xlink:href="#g4407" />
    <use
       transform="translate(75.85633,378.1559)"
       id="use4439"
       x="0"
       y="0"
       width="744.09448"
       height="1052.3622"
       xlink:href="#g4407" />
    <use
       transform="translate(75.85633,453.7871)"
       id="use4441"
       x="0"
       y="0"
       width="744.09448"
       height="1052.3622"
       xlink:href="#g4407" />
    <use
       transform="translate(75.85633,529.4183)"
       id="use4443"
       x="0"
       y="0"
       width="744.09448"
       height="1052.3622"
       xlink:href="#g4407" />
    <use
       transform="translate(151.7127,0)"
       id="use4445"
       x="0"
       y="0"
       width="744.09448"
       height="1052.3622"
       xlink:href="#g4407" />
    <use
       transform="translate(151.7127,75.63119)"
       id="use4447"
       x="0"
       y="0"
       width="744.09448"
       height="1052.3622"
       xlink:href="#g4407" />
    <use
       transform="translate(151.7127,151.2624)"
       id="use4449"
       x="0"
       y="0"
       width="744.09448"
       height="1052.3622"
       xlink:href="#g4407" />
    <use
       transform="translate(151.7127,226.8936)"
       id="use4451"
       x="0"
       y="0"
       width="744.09448"
       height="1052.3622"
       xlink:href="#g4407" />
    <use
       transform="translate(151.7127,302.5248)"
       id="use4453"
       x="0"
       y="0"
       width="744.09448"
       height="1052.3622"
       xlink:href="#g4407" />
    <use
       transform="translate(151.7127,378.1559)"
       id="use4455"
       x="0"
       y="0"
       width="744.09448"
       height="1052.3622"
       xlink:href="#g4407" />
    <use
       transform="translate(151.7127,453.7871)"
       id="use4457"
       x="0"
       y="0"
       width="744.09448"
       height="1052.3622"
       xlink:href="#g4407" />
    <use
       transform="translate(151.7127,529.4183)"
       id="use4459"
       x="0"
       y="0"
       width="744.09448"
       height="1052.3622"
       xlink:href="#g4407" />
    <use
       transform="translate(227.569,0)"
       id="use4461"
       x="0"
       y="0"
       width="744.09448"
       height="1052.3622"
       xlink:href="#g4407" />
    <use
       transform="translate(227.569,75.63119)"
       id="use4463"
       x="0"
       y="0"
       width="744.09448"
       height="1052.3622"
       xlink:href="#g4407" />
    <use
       transform="translate(227.569,151.2624)"
       id="use4465"
       x="0"
       y="0"
       width="744.09448"
       height="1052.3622"
       xlink:href="#g4407" />
    <use
       transform="translate(227.569,226.8936)"
       id="use4467"
       x="0"
       y="0"
       width="744.09448"
       height="1052.3622"
       xlink:href="#g4407" />
    <use
       transform="translate(227.569,302.5248)"
       id="use4469"
       x="0"
       y="0"
       width="744.09448"
       height="1052.3622"
       xlink:href="#g4407" />
    <use
       transform="translate(227.569,378.1559)"
       id="use4471"
       x="0"
       y="0"
       width="744.09448"
       height="1052.3622"
       xlink:href="#g4407" />
    <use
       transform="translate(227.569,453.7871)"
       id="use4473"
       x="0"
       y="0"
       width="744.09448"
       height="1052.3622"
       xlink:href="#g4407" />
    <use
       transform="translate(227.569,529.4183)"
       id="use4475"
       x="0"
       y="0"
       width="744.09448"
       height="1052.3622"
       xlink:href="#g4407" />
    <use
       transform="translate(303.4253,0)"
       id="use4477"
       x="0"
       y="0"
       width="744.09448"
       height="1052.3622"
       xlink:href="#g4407" />
    <use
       transform="translate(303.4253,75.63119)"
       id="use4479"
       x="0"
       y="0"
       width="744.09448"
       height="1052.3622"
       xlink:href="#g4407" />
    <use
       transform="translate(303.4253,151.2624)"
       id="use4481"
       x="0"
       y="0"
       width="744.09448"
       height="1052.3622"
       xlink:href="#g4407" />
    <use
       transform="translate(303.4253,226.8936)"
       id="use4483"
       x="0"
       y="0"
       width="744.09448"
       height="1052.3622"
       xlink:href="#g4407" />
    <use
       transform="translate(303.4253,302.5248)"
       id="use4485"
       x="0"
       y="0"
       width="744.09448"
       height="1052.3622"
       xlink:href="#g4407" />
    <use
       transform="translate(303.4253,378.1559)"
       id="use4487"
       x="0"
       y="0"
       width="744.09448"
       height="1052.3622"
       xlink:href="#g4407" />
    <use
       transform="translate(303.4253,453.7871)"
       id="use4489"
       x="0"
       y="0"
       width="744.09448"
       height="1052.3622"
       xlink:href="#g4407" />
    <use
       transform="translate(303.4253,529.4183)"
       id="use4491"
       x="0"
       y="0"
       width="744.09448"
       height="1052.3622"
       xlink:href="#g4407" />
    <use
       transform="translate(379.2816,0)"
       id="use4493"
       x="0"
       y="0"
       width="744.09448"
       height="1052.3622"
       xlink:href="#g4407" />
    <use
       transform="translate(379.2816,75.63119)"
       id="use4495"
       x="0"
       y="0"
       width="744.09448"
       height="1052.3622"
       xlink:href="#g4407" />
    <use
       transform="translate(379.2816,151.2624)"
       id="use4497"
       x="0"
       y="0"
       width="744.09448"
       height="1052.3622"
       xlink:href="#g4407" />
    <use
       transform="translate(379.2816,226.8936)"
       id="use4499"
       x="0"
       y="0"
       width="744.09448"
       height="1052.3622"
       xlink:href="#g4407" />
    <use
       transform="translate(379.2816,302.5248)"
       id="use4501"
       x="0"
       y="0"
       width="744.09448"
       height="1052.3622"
       xlink:href="#g4407" />
    <use
       transform="translate(379.2816,378.1559)"
       id="use4503"
       x="0"
       y="0"
       width="744.09448"
       height="1052.3622"
       xlink:href="#g4407" />
    <use
       transform="translate(379.2816,453.7871)"
       id="use4505"
       x="0"
       y="0"
       width="744.09448"
       height="1052.3622"
       xlink:href="#g4407" />
    <use
       transform="translate(379.2816,529.4183)"
       id="use4507"
       x="0"
       y="0"
       width="744.09448"
       height="1052.3622"
       xlink:href="#g4407" />
    <use
       transform="translate(455.138,0)"
       id="use4509"
       x="0"
       y="0"
       width="744.09448"
       height="1052.3622"
       xlink:href="#g4407" />
    <use
       transform="translate(455.138,75.63119)"
       id="use4511"
       x="0"
       y="0"
       width="744.09448"
       height="1052.3622"
       xlink:href="#g4407" />
    <use
       transform="translate(455.138,151.2624)"
       id="use4513"
       x="0"
       y="0"
       width="744.09448"
       height="1052.3622"
       xlink:href="#g4407" />
    <use
       transform="translate(455.138,226.8936)"
       id="use4515"
       x="0"
       y="0"
       width="744.09448"
       height="1052.3622"
       xlink:href="#g4407" />
    <use
       transform="translate(455.138,302.5248)"
       id="use4517"
       x="0"
       y="0"
       width="744.09448"
       height="1052.3622"
       xlink:href="#g4407" />
    <use
       transform="translate(455.138,378.1559)"
       id="use4519"
       x="0"
       y="0"
       width="744.09448"
       height="1052.3622"
       xlink:href="#g4407" />
    <use
       transform="translate(455.138,453.7871)"
       id="use4521"
       x="0"
       y="0"
       width="744.09448"
       height="1052.3622"
       xlink:href="#g4407" />
    <use
       transform="translate(455.138,529.4183)"
       id="use4523"
       x="0"
       y="0"
       width="744.09448"
       height="1052.3622"
       xlink:href="#g4407" />
    <use
       transform="translate(530.9943,0)"
       id="use4525"
       x="0"
       y="0"
       width="744.09448"
       height="1052.3622"
       xlink:href="#g4407" />
    <use
       transform="translate(530.9943,75.63119)"
       id="use4527"
       x="0"
       y="0"
       width="744.09448"
       height="1052.3622"
       xlink:href="#g4407" />
    <use
       transform="translate(530.9943,151.2624)"
       id="use4529"
       x="0"
       y="0"
       width="744.09448"
       height="1052.3622"
       xlink:href="#g4407" />
    <use
       transform="translate(530.9943,226.8936)"
       id="use4531"
       x="0"
       y="0"
       width="744.09448"
       height="1052.3622"
       xlink:href="#g4407" />
    <use
       transform="translate(530.9943,302.5248)"
       id="use4533"
       x="0"
       y="0"
       width="744.09448"
       height="1052.3622"
       xlink:href="#g4407" />
    <use
       transform="translate(530.9943,378.1559)"
       id="use4535"
       x="0"
       y="0"
       width="744.09448"
       height="1052.3622"
       xlink:href="#g4407" />
    <use
       transform="translate(530.9943,453.7871)"
       id="use4537"
       x="0"
       y="0"
       width="744.09448"
       height="1052.3622"
       xlink:href="#g4407" />
    <use
       transform="translate(530.9943,529.4183)"
       id="use4539"
       x="0"
       y="0"
       width="744.09448"
       height="1052.3622"
       xlink:href="#g4407" />
  </g>
</svg>
